<?xml version="1.0" encoding="UTF-8" standalone="no"?>
<svg width="68px" height="99px" viewBox="0 0 68 99" version="1.1" xmlns="http://www.w3.org/2000/svg" xmlns:xlink="http://www.w3.org/1999/xlink" xmlns:sketch="http://www.bohemiancoding.com/sketch/ns">
    <!-- Generator: Sketch 3.3.2 (12043) - http://www.bohemiancoding.com/sketch -->
    <title>nmc</title>
    <desc>Created with Sketch.</desc>
    <defs>
        <linearGradient x1="11.7626844%" y1="12.400574%" x2="68.8022124%" y2="59.0522285%" id="linearGradient-1">
            <stop stop-color="#0033FF" offset="0%"></stop>
            <stop stop-color="#0062EE" offset="9.448713%"></stop>
            <stop stop-color="#008BE0" offset="19.19%"></stop>
            <stop stop-color="#01AED4" offset="29.55%"></stop>
            <stop stop-color="#01CACA" offset="40.45%"></stop>
            <stop stop-color="#01E0C2" offset="52.08%"></stop>
            <stop stop-color="#01F0BC" offset="64.78%"></stop>
            <stop stop-color="#01F9B9" offset="79.35%"></stop>
            <stop stop-color="#01FCB8" offset="100%"></stop>
        </linearGradient>
    </defs>
    <g id="Page-1" stroke="none" stroke-width="1" fill="none" fill-rule="evenodd" sketch:type="MSPage">
        <g id="nmc" sketch:type="MSLayerGroup">
            <g id="Page-1" sketch:type="MSShapeGroup">
                <g id="nmclogo">
                    <path d="M21.9521739,1.25597015 L26.8304348,1.25597015 L31.4130435,13.6679104 L31.4869565,13.6679104 L35.9956522,1.25597015 L40.873913,1.25597015 L40.873913,18.7656716 L37.7695652,18.7656716 L37.7695652,4.65447761 L37.6956522,4.65447761 L32.373913,18.7656716 L30.2304348,18.7656716 L24.9826087,4.65447761 L24.9086957,4.65447761 L24.9086957,18.7656716 L21.9521739,18.7656716 L21.9521739,1.25597015 L21.9521739,1.25597015 Z" id="Shape" fill="#0033FF"></path>
                    <path d="M58.9086957,5.31940299 C58.4652174,4.72835821 57.873913,4.21119403 57.1347826,3.91567164 C56.3956522,3.62014925 55.6565217,3.47238806 54.9913043,3.47238806 C54.1043478,3.47238806 53.2913043,3.62014925 52.5521739,3.98955224 C51.8130435,4.28507463 51.1478261,4.80223881 50.6304348,5.31940299 C50.1130435,5.91044776 49.6695652,6.57537313 49.373913,7.3141791 C49.0782609,8.05298507 48.9304348,8.93955224 48.9304348,9.8261194 C48.9304348,10.7865672 49.0782609,11.6731343 49.373913,12.4119403 C49.6695652,13.2246269 50.0391304,13.8895522 50.5565217,14.480597 C51.073913,15.0716418 51.6652174,15.5149254 52.4043478,15.8104478 C53.1434783,16.1059701 53.9565217,16.2537313 54.8434783,16.2537313 C55.8043478,16.2537313 56.6173913,16.0320896 57.3565217,15.6626866 C58.0956522,15.2932836 58.6869565,14.7761194 59.1304348,14.1850746 L61.6434783,15.958209 C60.9043478,16.9186567 59.9434783,17.6574627 58.7608696,18.2485075 C57.6521739,18.7656716 56.3217391,19.061194 54.8434783,19.061194 C53.4391304,19.061194 52.1826087,18.8395522 51.073913,18.3962687 C49.8913043,17.9529851 48.9304348,17.2880597 48.1173913,16.4753731 C47.3043478,15.6626866 46.6391304,14.7022388 46.1956522,13.5201493 C45.7521739,12.4119403 45.5304348,11.1559701 45.5304348,9.75223881 C45.5304348,8.34850746 45.7521739,7.09253731 46.2695652,5.98432836 C46.7869565,4.8761194 47.4521739,3.91567164 48.2652174,3.10298507 C49.0782609,2.29029851 50.1130435,1.69925373 51.2956522,1.25597015 C52.4782609,0.812686567 53.7347826,0.591044776 55.0652174,0.591044776 C55.6565217,0.591044776 56.2478261,0.664925373 56.8391304,0.73880597 C57.4304348,0.812686567 58.0217391,1.03432836 58.6130435,1.25597015 C59.2043478,1.47761194 59.7217391,1.77313433 60.1652174,2.06865672 C60.6826087,2.3641791 61.0521739,2.80746269 61.4217391,3.25074627 L58.9086957,5.31940299 L58.9086957,5.31940299 Z" id="Shape" fill="#0033FF"></path>
                    <path d="M12.4173913,14.3328358 L12.4173913,1.25597015 L15.5217391,1.25597015 L15.5217391,18.7656716" id="Shape" fill="#0033FF"></path>
                    <path d="M12.3434783,14.3328358 L12.4173913,14.3328358" id="Shape" fill="#FFFFFF"></path>
                    <path d="M3.25217391,5.91044776 L3.17826087,18.7656716 L0.0739130435,18.7656716 L0.0739130435,1.25597015" id="Shape" fill="#0033FF"></path>
                    <path d="M3.54782609,2.4380597 L13.3043478,17.5097015 L12.5652174,17.5097015 L2.36521739,2.4380597 L3.54782609,2.4380597 L3.54782609,2.4380597 Z M4.21304348,1.25597015 L0.0739130435,1.25597015 L11.9,18.7656716 L15.5217391,18.7656716 L4.21304348,1.25597015 L4.21304348,1.25597015 Z" id="Shape" fill="#0033FF"></path>
                    <ellipse id="Oval" fill="#0033FF" cx="26.3130435" cy="48.0223881" rx="24.6130435" ry="24.6022388"></ellipse>
                    <path d="M25.426087,98.5567164 L17.7391304,40.6343284 L67.8521739,38.491791 L25.426087,98.5567164 L25.426087,98.5567164 Z" id="Shape" opacity="0.55" fill="url(#linearGradient-1)"></path>
                    <ellipse id="Oval" stroke="#0033FF" stroke-width="2.72" cx="26.2391304" cy="47.7268657" rx="24.6130435" ry="24.6022388"></ellipse>
                </g>
            </g>
        </g>
    </g>
</svg>